HIERARCHY
ROOT Hips
{
	OFFSET 0.000000 0.000000 0.000000
	CHANNELS 6 Xposition Yposition Zposition Zrotation Yrotation Xrotation 
	JOINT LHipJoint
	{
		OFFSET 0.000000 0.000000 0.000000
		CHANNELS 3 Zrotation Yrotation Xrotation
		JOINT LeftUpLeg
		{
			OFFSET 1.363060 -1.794630 0.839290
			CHANNELS 3 Zrotation Yrotation Xrotation
			JOINT LeftLeg
			{
				OFFSET 2.448110 -6.726130 0.000000
				CHANNELS 3 Zrotation Yrotation Xrotation
				JOINT LeftFoot
				{
					OFFSET 2.562200 -7.039590 0.000000
					CHANNELS 3 Zrotation Yrotation Xrotation
					JOINT LeftToeBase
					{
						OFFSET 0.157640 -0.433110 2.322550
						CHANNELS 3 Zrotation Yrotation Xrotation
						End Site
						{
							OFFSET 0.000000 0.000000 0.000000
						}
					}
				}
			}
		}
	}
	JOINT RHipJoint
	{
		OFFSET 0.000000 0.000000 0.000000
		CHANNELS 3 Zrotation Yrotation Xrotation
		JOINT RightUpLeg
		{
			OFFSET -1.305520 -1.794630 0.839290
			CHANNELS 3 Zrotation Yrotation Xrotation
			JOINT RightLeg
			{
				OFFSET -2.542530 -6.985550 0.000000
				CHANNELS 3 Zrotation Yrotation Xrotation
				JOINT RightFoot
				{
					OFFSET -2.568260 -7.056230 0.000000
					CHANNELS 3 Zrotation Yrotation Xrotation
					JOINT RightToeBase
					{
						OFFSET -0.164730 -0.452590 2.363150
						CHANNELS 3 Zrotation Yrotation Xrotation
						End Site
						{
							OFFSET 0.000000 0.000000 0.000000
						}
					}
				}
			}
		}
	}
	JOINT LowerBack
	{
		OFFSET 0.000000 0.000000 0.000000
		CHANNELS 3 Zrotation Yrotation Xrotation
		JOINT Spine
		{
			OFFSET 0.028270 2.035590 -0.193380
			CHANNELS 3 Zrotation Yrotation Xrotation
			JOINT Spine1
			{
				OFFSET 0.056720 2.048850 -0.042750
				CHANNELS 3 Zrotation Yrotation Xrotation
				JOINT Neck
				{
					OFFSET 0.000000 0.000000 0.000000
					CHANNELS 3 Zrotation Yrotation Xrotation
					JOINT Neck1
					{
						OFFSET -0.054170 1.746240 0.172020
						CHANNELS 3 Zrotation Yrotation Xrotation
						JOINT Head
						{
							OFFSET 0.104070 1.761360 -0.123970
							CHANNELS 3 Zrotation Yrotation Xrotation
							End Site
							{
								OFFSET 0.000000 0.000000 0.000000
							}
						}
					}
				}
				JOINT LeftShoulder
				{
					OFFSET 0.000000 0.000000 0.000000
					CHANNELS 3 Zrotation Yrotation Xrotation
					JOINT LeftArm
					{
						OFFSET 3.362410 1.200890 -0.311210
						CHANNELS 3 Zrotation Yrotation Xrotation
						JOINT LeftForeArm
						{
							OFFSET 4.983000 -0.000000 -0.000000
							CHANNELS 3 Zrotation Yrotation Xrotation
							JOINT LeftHand
							{
								OFFSET 3.483560 -0.000000 -0.000000
								CHANNELS 3 Zrotation Yrotation Xrotation
								JOINT LeftFingerBase
								{
									OFFSET 0.000000 0.000000 0.000000
									CHANNELS 3 Zrotation Yrotation Xrotation
									JOINT LeftHandIndex1
									{
										OFFSET 0.715260 -0.000000 -0.000000
										CHANNELS 3 Zrotation Yrotation Xrotation
										End Site
										{
											OFFSET 0.000000 0.000000 0.000000
										}
									}
								}
								JOINT LThumb
								{
									OFFSET 0.000000 0.000000 0.000000
									CHANNELS 3 Zrotation Yrotation Xrotation
									End Site
									{
										OFFSET 0.000000 0.000000 0.000000
									}
								}
							}
						}
					}
				}
				JOINT RightShoulder
				{
					OFFSET 0.000000 0.000000 0.000000
					CHANNELS 3 Zrotation Yrotation Xrotation
					JOINT RightArm
					{
						OFFSET -3.136600 1.374050 -0.404650
						CHANNELS 3 Zrotation Yrotation Xrotation
						JOINT RightForeArm
						{
							OFFSET -5.241900 -0.000000 -0.000000
							CHANNELS 3 Zrotation Yrotation Xrotation
							JOINT RightHand
							{
								OFFSET -3.444170 -0.000000 -0.000000
								CHANNELS 3 Zrotation Yrotation Xrotation
								JOINT RightFingerBase
								{
									OFFSET 0.000000 0.000000 0.000000
									CHANNELS 3 Zrotation Yrotation Xrotation
									JOINT RightHandIndex1
									{
										OFFSET -0.622530 -0.000000 -0.000000
										CHANNELS 3 Zrotation Yrotation Xrotation
										End Site
										{
											OFFSET 0.000000 0.000000 0.000000
										}
									}
								}
								JOINT RThumb
								{
									OFFSET 0.000000 0.000000 0.000000
									CHANNELS 3 Zrotation Yrotation Xrotation
									End Site
									{
										OFFSET 0.000000 0.000000 0.000000
									}
								}
							}
						}
					}
				}
			}
		}
	}
}
MOTION
Frames: 9
Frame Time: 0.016667
-2.013129 16.498984 23.874843 10.705085 0.772397 -1.443785 -7.205684 -0.504779 6.945165 -17.614197 -43.364188 1.009134 62.607233 -53.966186 -27.312232 -37.288982 -50.073749 41.594339 0.000000 0.000000 0.000000 38.690582 -28.148226 -39.664969 29.252791 44.903746 -15.605161 82.156956 -20.433350 94.105031 11.018014 73.280570 -102.655766 0.000000 0.000000 0.000000 -23.487667 12.317378 29.512109 -7.167154 0.635259 -2.923060 28.815062 7.316431 -15.429340 32.978609 -10.137622 -33.904479 -24.578294 -3.848909 12.501649 0.000000 0.000000 0.000000 -9.608940 -19.844092 15.881754 93.955906 15.467279 27.952016 35.609538 17.004694 107.962672 41.487944 -53.996618 101.170719 -102.276879 31.038929 -0.000001 0.000000 0.000000 0.000000 0.000000 0.000000 0.000000 5.853426 -14.022097 5.306082 43.333922 -16.373952 11.824315 -17.177948 77.664640 -1.192759 19.433021 -35.602046 -1.210756 22.039623 -34.324082 0.000000 0.000000 0.000000 0.000000 0.000000 0.000000 0.000000 
-2.025076 16.526938 24.063942 13.295604 -0.621281 -0.670719 -7.798636 -0.865217 7.052629 -19.687524 -43.904064 1.671322 62.801044 -54.380794 -26.113049 -35.478364 -50.930777 39.807653 0.000000 0.000000 0.000000 37.983992 -27.145582 -39.150260 28.099252 44.744360 -16.395706 82.277465 -21.884066 95.406651 9.646968 71.784133 -102.631721 0.000000 0.000000 0.000000 -19.696216 10.935501 27.880835 -8.474896 -1.023690 0.501733 31.774621 6.147788 -9.104188 30.655098 -7.536656 -34.320020 -34.851638 -2.247237 9.124154 0.000000 0.000000 0.000000 2.138289 -21.758695 30.813547 41.632746 19.086752 23.195691 7.956160 -4.561066 129.943173 60.042604 61.757321 -127.000787 7.078387 -64.098306 179.999968 0.000000 0.000000 0.000000 0.000000 0.000000 0.000000 -1.061199 -14.324760 -5.895524 50.344509 -11.221757 1.830568 -17.194084 75.503630 -3.057062 19.368118 -33.935200 -2.394466 22.804164 -32.349536 0.000000 0.000000 0.000000 0.000000 0.000000 0.000000 0.000000 
-2.034622 16.556021 24.249106 9.584139 0.997425 -0.568748 -5.418162 -1.030536 6.070742 -19.744048 -43.887664 2.911004 61.966946 -54.658585 -25.468460 -34.263867 -51.573843 37.423498 0.000000 0.000000 0.000000 38.191868 -26.893961 -38.514624 28.457246 41.582156 -18.070282 83.400388 -22.917089 95.009841 8.980576 71.323908 -102.658625 0.000000 0.000000 0.000000 -25.793207 10.432509 29.257875 -2.374488 0.432598 -1.810910 42.271791 1.647176 -7.588863 31.409601 -6.454533 -43.088219 -25.789606 -2.984836 9.290431 0.000000 0.000000 0.000000 14.497892 -6.034821 42.159210 31.190515 13.630002 36.324892 80.267090 -47.826272 54.532909 -161.876326 -48.821628 -149.270564 -117.497939 -62.823188 0.000001 0.000000 0.000000 0.000000 0.000000 0.000000 0.000000 -3.432397 -8.624430 1.646658 37.784608 -11.555922 11.325392 -17.820594 80.023903 -0.417022 19.377579 -35.979021 -0.702206 21.582751 -34.858817 0.000000 0.000000 0.000000 0.000000 0.000000 0.000000 0.000000 
-2.041311 16.585851 24.429792 12.106196 -0.238554 -2.500523 -6.839420 0.521497 7.949738 -21.494493 -43.550809 3.234102 60.875571 -54.852571 -24.376111 -32.706575 -51.713097 35.472670 0.000000 0.000000 0.000000 35.915233 -26.301852 -37.032785 27.706518 40.379233 -17.025581 83.657133 -24.443433 96.126912 8.022717 70.268711 -102.671284 0.000000 0.000000 0.000000 -19.394605 2.918179 22.722700 -4.114692 -3.771535 -5.180335 24.997839 3.512624 -20.171180 18.033295 -20.965855 -10.423987 -34.219961 -2.011883 16.985600 0.000000 0.000000 0.000000 5.548774 -12.898196 -34.947924 -24.423040 -2.897046 20.860461 17.267069 39.990985 51.314773 -118.600562 33.609457 -145.123961 -13.109633 2.782104 -0.000000 0.000000 0.000000 0.000000 0.000000 0.000000 0.000000 1.046279 7.191374 25.112150 46.519434 -27.363651 12.640604 -18.738246 81.195578 1.180301 19.703566 -37.745152 0.336532 21.176122 -36.887170 0.000000 0.000000 0.000000 0.000000 0.000000 0.000000 0.000000 
-2.044545 16.616000 24.605958 15.528568 0.728128 -0.046607 -8.209548 -2.162100 6.235827 -23.727055 -44.580757 4.056548 60.863790 -55.643982 -23.046403 -31.213229 -52.438357 34.317226 0.000000 0.000000 0.000000 34.954968 -26.216105 -38.391544 26.490594 40.263692 -19.398747 83.531720 -25.591585 97.410482 7.576980 69.222428 -103.289376 0.000000 0.000000 0.000000 -13.941711 8.011020 23.084622 -7.011037 0.566867 -5.313345 10.037350 2.766406 -11.041932 29.725223 -11.071845 -25.333137 -33.394902 -2.242077 11.245583 0.000000 0.000000 0.000000 -30.987568 -13.338205 1.788582 8.173217 -21.302484 -62.116745 62.882145 -42.644294 -31.408537 -95.555371 44.714983 88.695979 -144.745757 -38.108349 -0.000000 0.000000 0.000000 0.000000 0.000000 0.000000 0.000000 11.182623 -9.930911 2.229443 59.117021 -18.835910 3.329947 -16.715787 77.906653 -1.967961 19.657036 -35.352746 -1.707805 22.636386 -33.920841 0.000000 0.000000 0.000000 0.000000 0.000000 0.000000 0.000000 
-2.044610 16.646260 24.777293 9.290994 -3.166714 1.627441 -2.454997 -0.114183 4.193410 -23.201270 -44.186396 4.144966 59.977754 -55.212393 -21.503822 -30.132462 -52.310243 32.192078 0.000000 0.000000 0.000000 37.876060 -21.726719 -36.188840 27.804655 37.823452 -20.344355 84.094770 -26.527609 97.457122 7.183846 68.978166 -103.305130 0.000000 0.000000 0.000000 -29.126485 -2.533023 33.650853 -1.500484 -6.410265 1.474869 42.720253 -4.791769 -25.495980 40.467193 -8.052309 -28.482765 -23.923270 -2.697505 9.966842 0.000000 0.000000 0.000000 3.886359 -29.621379 -0.541127 78.185156 37.860174 28.388995 -27.806290 -18.673048 30.974823 -178.032477 -15.850524 -95.374932 124.047812 -51.600308 -0.000000 0.000000 0.000000 0.000000 0.000000 0.000000 0.000000 1.964473 13.046519 13.485096 34.709590 -12.695668 17.975087 -15.088272 80.142939 -0.149461 19.043576 -35.634799 -0.531273 21.082771 -34.593757 0.000000 0.000000 0.000000 0.000000 0.000000 0.000000 0.000000 
-2.041834 16.676365 24.943952 12.128162 3.936512 1.970775 -4.862442 -4.178696 3.538417 -25.554773 -45.275537 6.308721 59.006050 -56.389889 -21.190347 -28.941854 -52.946763 31.091311 0.000000 0.000000 0.000000 35.492227 -25.222924 -38.822009 25.765010 36.097127 -23.025319 83.753041 -27.453446 97.747601 6.799296 68.426272 -103.709418 0.000000 0.000000 0.000000 -21.336510 15.750843 25.232814 1.592495 4.421674 -4.026838 44.403470 -1.487110 4.736507 26.668927 -11.887144 -55.134995 -29.753538 -2.637150 1.664549 0.000000 0.000000 0.000000 23.558316 10.346125 69.713525 49.976488 -43.786652 62.796041 -52.980146 38.218305 68.598736 106.278736 -25.688937 -83.247650 -105.511452 20.705858 -0.000007 0.000000 0.000000 0.000000 0.000000 0.000000 0.000000 -7.576929 -20.077127 -8.336677 42.684578 -6.452263 6.071132 -17.982009 79.670435 -0.246431 18.661993 -35.091993 -0.600064 20.739459 -34.046511 0.000000 0.000000 0.000000 0.000000 0.000000 0.000000 0.000000 
-2.036884 16.706123 25.106109 12.050459 -2.516665 1.812111 -3.460424 -0.780371 4.045356 -26.356413 -44.821449 5.667769 58.140939 -55.996154 -19.254002 -27.646960 -52.543793 29.576061 0.000000 0.000000 0.000000 35.686284 -21.071088 -35.849841 26.384711 36.020136 -21.627999 83.275464 -28.541813 99.149625 6.501316 67.950360 -104.211412 0.000000 0.000000 0.000000 -23.277187 2.903501 30.339441 0.454399 -8.714594 -9.753243 34.399944 12.212150 -28.442949 25.240126 -13.293423 -22.437791 -32.683786 -2.467780 11.789067 0.000000 0.000000 0.000000 14.060285 -5.049317 -10.587351 -46.250243 -35.048875 25.690476 -18.515366 -9.416196 109.064344 24.551996 -79.642111 -151.846297 18.083160 -63.422350 -179.999999 0.000000 0.000000 0.000000 0.000000 0.000000 0.000000 -2.602885 -3.487131 19.320031 46.314207 -23.258731 15.259441 -15.644579 80.100533 -0.461519 18.809104 -35.760058 -0.794459 21.140390 -34.604685 0.000000 0.000000 0.000000 0.000000 0.000000 0.000000 0.000000 
-2.030125 16.735455 25.263996 13.481845 1.675334 0.029516 -5.615306 -2.686801 5.511996 -27.347448 -45.418721 7.383290 56.942595 -56.780222 -18.526102 -26.731937 -52.920658 28.296913 0.000000 0.000000 0.000000 32.951351 -24.473039 -36.280185 26.315499 33.864558 -22.160809 83.062466 -29.442485 99.364249 6.612305 67.916720 -104.600465 0.000000 0.000000 0.000000 -16.917658 8.507314 22.697377 -9.564214 -1.537477 -7.877910 14.949798 15.490062 -26.131848 17.708850 -30.291073 -4.933652 -45.195671 -1.857836 19.753928 0.000000 0.000000 0.000000 13.030659 -77.191000 -53.307502 3.461036 38.809534 -59.423343 148.572226 27.539391 -50.596653 -153.188343 46.815319 138.476755 143.195455 -27.435649 180.000000 0.000000 0.000000 0.000000 0.000000 0.000000 0.000000 -2.038785 -21.910876 22.367723 50.779660 -35.495652 7.753318 -18.436498 81.928476 1.173007 18.882324 -37.192202 0.280889 20.425984 -36.327458 0.000000 0.000000 0.000000 0.000000 0.000000 0.000000 0.000000 
